<mxfile host="app.diagrams.net" modified="2024-04-04T02:37:14.285Z" agent="Mozilla/5.0 (Windows NT 10.0; Win64; x64) AppleWebKit/537.36 (KHTML, like Gecko) Chrome/123.0.0.0 Safari/537.36" etag="329lm5F7sule3LPUBmBu" version="24.2.2" type="device">
  <diagram name="페이지-1" id="ozS88X3GV_UWVC78FxJN">
    <mxGraphModel dx="1372" dy="786" grid="1" gridSize="10" guides="1" tooltips="1" connect="1" arrows="1" fold="1" page="1" pageScale="1" pageWidth="827" pageHeight="1169" math="0" shadow="0">
      <root>
        <mxCell id="0" />
        <mxCell id="1" parent="0" />
        <mxCell id="p4ZNRK0SBtNsiyCoXJsn-26" value="" style="rounded=0;whiteSpace=wrap;html=1;" vertex="1" parent="1">
          <mxGeometry x="100" y="120" width="640" height="340" as="geometry" />
        </mxCell>
        <mxCell id="p4ZNRK0SBtNsiyCoXJsn-1" value="Actor" style="shape=umlActor;verticalLabelPosition=bottom;verticalAlign=top;html=1;outlineConnect=0;" vertex="1" parent="1">
          <mxGeometry x="399" y="20" width="30" height="60" as="geometry" />
        </mxCell>
        <mxCell id="p4ZNRK0SBtNsiyCoXJsn-8" style="edgeStyle=orthogonalEdgeStyle;rounded=0;orthogonalLoop=1;jettySize=auto;html=1;" edge="1" parent="1" source="p4ZNRK0SBtNsiyCoXJsn-2" target="p4ZNRK0SBtNsiyCoXJsn-6">
          <mxGeometry relative="1" as="geometry" />
        </mxCell>
        <mxCell id="p4ZNRK0SBtNsiyCoXJsn-2" value="/목록" style="rounded=0;whiteSpace=wrap;html=1;" vertex="1" parent="1">
          <mxGeometry x="354" y="150" width="120" height="60" as="geometry" />
        </mxCell>
        <mxCell id="p4ZNRK0SBtNsiyCoXJsn-3" value="" style="endArrow=classic;html=1;rounded=0;" edge="1" parent="1" source="p4ZNRK0SBtNsiyCoXJsn-1" target="p4ZNRK0SBtNsiyCoXJsn-2">
          <mxGeometry width="50" height="50" relative="1" as="geometry">
            <mxPoint x="390" y="430" as="sourcePoint" />
            <mxPoint x="440" y="380" as="targetPoint" />
          </mxGeometry>
        </mxCell>
        <mxCell id="p4ZNRK0SBtNsiyCoXJsn-16" style="edgeStyle=orthogonalEdgeStyle;rounded=0;orthogonalLoop=1;jettySize=auto;html=1;entryX=0.5;entryY=0;entryDx=0;entryDy=0;" edge="1" parent="1" source="p4ZNRK0SBtNsiyCoXJsn-4" target="p4ZNRK0SBtNsiyCoXJsn-14">
          <mxGeometry relative="1" as="geometry" />
        </mxCell>
        <mxCell id="p4ZNRK0SBtNsiyCoXJsn-18" value="no" style="edgeLabel;html=1;align=center;verticalAlign=middle;resizable=0;points=[];" vertex="1" connectable="0" parent="p4ZNRK0SBtNsiyCoXJsn-16">
          <mxGeometry x="-0.2" y="2" relative="1" as="geometry">
            <mxPoint x="-3" as="offset" />
          </mxGeometry>
        </mxCell>
        <mxCell id="p4ZNRK0SBtNsiyCoXJsn-24" style="edgeStyle=orthogonalEdgeStyle;rounded=0;orthogonalLoop=1;jettySize=auto;html=1;" edge="1" parent="1" source="p4ZNRK0SBtNsiyCoXJsn-4" target="p4ZNRK0SBtNsiyCoXJsn-22">
          <mxGeometry relative="1" as="geometry" />
        </mxCell>
        <mxCell id="p4ZNRK0SBtNsiyCoXJsn-25" value="no" style="edgeLabel;html=1;align=center;verticalAlign=middle;resizable=0;points=[];" vertex="1" connectable="0" parent="p4ZNRK0SBtNsiyCoXJsn-24">
          <mxGeometry x="-0.1327" y="2" relative="1" as="geometry">
            <mxPoint as="offset" />
          </mxGeometry>
        </mxCell>
        <mxCell id="p4ZNRK0SBtNsiyCoXJsn-4" value="/detail&lt;div&gt;상세&lt;/div&gt;" style="rounded=0;whiteSpace=wrap;html=1;" vertex="1" parent="1">
          <mxGeometry x="354" y="260" width="120" height="60" as="geometry" />
        </mxCell>
        <mxCell id="p4ZNRK0SBtNsiyCoXJsn-5" value="" style="endArrow=classic;html=1;rounded=0;" edge="1" parent="1" source="p4ZNRK0SBtNsiyCoXJsn-2" target="p4ZNRK0SBtNsiyCoXJsn-4">
          <mxGeometry width="50" height="50" relative="1" as="geometry">
            <mxPoint x="414" y="200" as="sourcePoint" />
            <mxPoint x="414" y="270" as="targetPoint" />
          </mxGeometry>
        </mxCell>
        <mxCell id="p4ZNRK0SBtNsiyCoXJsn-11" value="no" style="edgeLabel;html=1;align=center;verticalAlign=middle;resizable=0;points=[];" vertex="1" connectable="0" parent="p4ZNRK0SBtNsiyCoXJsn-5">
          <mxGeometry x="-0.08" relative="1" as="geometry">
            <mxPoint as="offset" />
          </mxGeometry>
        </mxCell>
        <mxCell id="p4ZNRK0SBtNsiyCoXJsn-9" style="edgeStyle=orthogonalEdgeStyle;rounded=0;orthogonalLoop=1;jettySize=auto;html=1;" edge="1" parent="1" source="p4ZNRK0SBtNsiyCoXJsn-6" target="p4ZNRK0SBtNsiyCoXJsn-7">
          <mxGeometry relative="1" as="geometry" />
        </mxCell>
        <mxCell id="p4ZNRK0SBtNsiyCoXJsn-10" value="board" style="edgeLabel;html=1;align=center;verticalAlign=middle;resizable=0;points=[];" vertex="1" connectable="0" parent="p4ZNRK0SBtNsiyCoXJsn-9">
          <mxGeometry x="-0.2" y="3" relative="1" as="geometry">
            <mxPoint x="-3" y="2" as="offset" />
          </mxGeometry>
        </mxCell>
        <mxCell id="p4ZNRK0SBtNsiyCoXJsn-6" value="/write[GET]&lt;div&gt;작성&lt;/div&gt;" style="rounded=0;whiteSpace=wrap;html=1;" vertex="1" parent="1">
          <mxGeometry x="140" y="150" width="120" height="60" as="geometry" />
        </mxCell>
        <mxCell id="p4ZNRK0SBtNsiyCoXJsn-12" style="edgeStyle=orthogonalEdgeStyle;rounded=0;orthogonalLoop=1;jettySize=auto;html=1;" edge="1" parent="1" source="p4ZNRK0SBtNsiyCoXJsn-7" target="p4ZNRK0SBtNsiyCoXJsn-4">
          <mxGeometry relative="1" as="geometry" />
        </mxCell>
        <mxCell id="p4ZNRK0SBtNsiyCoXJsn-13" value="&lt;div&gt;no&lt;br&gt;&lt;/div&gt;" style="edgeLabel;html=1;align=center;verticalAlign=middle;resizable=0;points=[];" vertex="1" connectable="0" parent="p4ZNRK0SBtNsiyCoXJsn-12">
          <mxGeometry x="-0.0426" y="-3" relative="1" as="geometry">
            <mxPoint y="-3" as="offset" />
          </mxGeometry>
        </mxCell>
        <mxCell id="p4ZNRK0SBtNsiyCoXJsn-7" value="/write[POST]&lt;div&gt;작성&lt;/div&gt;" style="rounded=0;whiteSpace=wrap;html=1;" vertex="1" parent="1">
          <mxGeometry x="140" y="260" width="120" height="60" as="geometry" />
        </mxCell>
        <mxCell id="p4ZNRK0SBtNsiyCoXJsn-17" style="edgeStyle=orthogonalEdgeStyle;rounded=0;orthogonalLoop=1;jettySize=auto;html=1;" edge="1" parent="1" source="p4ZNRK0SBtNsiyCoXJsn-14" target="p4ZNRK0SBtNsiyCoXJsn-15">
          <mxGeometry relative="1" as="geometry" />
        </mxCell>
        <mxCell id="p4ZNRK0SBtNsiyCoXJsn-19" value="board" style="edgeLabel;html=1;align=center;verticalAlign=middle;resizable=0;points=[];" vertex="1" connectable="0" parent="p4ZNRK0SBtNsiyCoXJsn-17">
          <mxGeometry x="0.1786" relative="1" as="geometry">
            <mxPoint x="-4" as="offset" />
          </mxGeometry>
        </mxCell>
        <mxCell id="p4ZNRK0SBtNsiyCoXJsn-14" value="/edit[GET]&lt;div&gt;수정&lt;/div&gt;&lt;div&gt;&lt;br&gt;&lt;/div&gt;" style="rounded=0;whiteSpace=wrap;html=1;" vertex="1" parent="1">
          <mxGeometry x="354" y="370" width="120" height="60" as="geometry" />
        </mxCell>
        <mxCell id="p4ZNRK0SBtNsiyCoXJsn-20" style="edgeStyle=orthogonalEdgeStyle;rounded=0;orthogonalLoop=1;jettySize=auto;html=1;entryX=0.658;entryY=1.033;entryDx=0;entryDy=0;entryPerimeter=0;" edge="1" parent="1" source="p4ZNRK0SBtNsiyCoXJsn-15" target="p4ZNRK0SBtNsiyCoXJsn-4">
          <mxGeometry relative="1" as="geometry">
            <Array as="points">
              <mxPoint x="590" y="350" />
              <mxPoint x="470" y="350" />
              <mxPoint x="470" y="322" />
            </Array>
          </mxGeometry>
        </mxCell>
        <mxCell id="p4ZNRK0SBtNsiyCoXJsn-21" value="no" style="edgeLabel;html=1;align=center;verticalAlign=middle;resizable=0;points=[];" vertex="1" connectable="0" parent="p4ZNRK0SBtNsiyCoXJsn-20">
          <mxGeometry x="-0.2143" y="4" relative="1" as="geometry">
            <mxPoint y="-6" as="offset" />
          </mxGeometry>
        </mxCell>
        <mxCell id="p4ZNRK0SBtNsiyCoXJsn-15" value="/edit[POST]&lt;div&gt;수정&lt;/div&gt;&lt;div&gt;&lt;br&gt;&lt;/div&gt;" style="rounded=0;whiteSpace=wrap;html=1;" vertex="1" parent="1">
          <mxGeometry x="530" y="370" width="120" height="60" as="geometry" />
        </mxCell>
        <mxCell id="p4ZNRK0SBtNsiyCoXJsn-23" style="edgeStyle=orthogonalEdgeStyle;rounded=0;orthogonalLoop=1;jettySize=auto;html=1;" edge="1" parent="1" source="p4ZNRK0SBtNsiyCoXJsn-22" target="p4ZNRK0SBtNsiyCoXJsn-2">
          <mxGeometry relative="1" as="geometry" />
        </mxCell>
        <mxCell id="p4ZNRK0SBtNsiyCoXJsn-22" value="/delete[GET]&lt;div&gt;삭제&lt;/div&gt;" style="rounded=0;whiteSpace=wrap;html=1;" vertex="1" parent="1">
          <mxGeometry x="560" y="150" width="120" height="60" as="geometry" />
        </mxCell>
        <mxCell id="p4ZNRK0SBtNsiyCoXJsn-27" value="/board" style="rounded=0;whiteSpace=wrap;html=1;" vertex="1" parent="1">
          <mxGeometry x="100" y="80" width="70" height="40" as="geometry" />
        </mxCell>
      </root>
    </mxGraphModel>
  </diagram>
</mxfile>
